# Blender v2.74 (sub 0) OBJ File: 'glass.blend'
# www.blender.org
v -0.015720 0.282006 0.073958
v -0.030754 0.282006 0.069074
v -0.044442 0.282006 0.061170
v -0.056190 0.282006 0.050592
v -0.065480 0.282006 0.037806
v -0.071910 0.282006 0.023364
v -0.075196 0.282006 0.007904
v -0.075196 0.282006 -0.007904
v -0.071910 0.282006 -0.023364
v -0.065480 0.282006 -0.037806
v -0.056190 0.282006 -0.050592
v -0.044442 0.282006 -0.061170
v -0.030754 0.282006 -0.069074
v -0.015720 0.282006 -0.073958
v 0.000000 0.282006 -0.075610
v 0.015720 0.282006 -0.073958
v 0.030754 0.282006 -0.069074
v 0.044442 0.282006 -0.061170
v 0.056190 0.282006 -0.050592
v 0.065480 0.282006 -0.037804
v 0.071910 0.282006 -0.023364
v 0.075196 0.282006 -0.007904
v 0.075196 0.282006 0.007904
v 0.071910 0.282006 0.023364
v 0.065480 0.282006 0.037806
v 0.056190 0.282006 0.050594
v 0.044442 0.282006 0.061170
v 0.030754 0.282006 0.069074
v 0.000000 0.282006 0.075610
v 0.015720 0.282006 0.073958
vn 0.000000 1.000000 -0.000000
s 1
f 15//1 14//1 13//1 12//1 11//1 10//1 9//1 8//1 7//1 6//1 5//1 4//1 3//1 2//1 1//1 29//1 30//1 28//1 27//1 26//1 25//1 24//1 23//1 22//1 21//1 20//1 19//1 18//1 17//1 16//1
